<?xml version="1.0" encoding="UTF-8" standalone="no"?>
<!-- Created with Inkscape (http://www.inkscape.org/) -->

<svg
   xmlns:dc="http://purl.org/dc/elements/1.1/"
   xmlns:cc="http://creativecommons.org/ns#"
   xmlns:rdf="http://www.w3.org/1999/02/22-rdf-syntax-ns#"
   xmlns:svg="http://www.w3.org/2000/svg"
   xmlns="http://www.w3.org/2000/svg"
   xmlns:sodipodi="http://sodipodi.sourceforge.net/DTD/sodipodi-0.dtd"
   xmlns:inkscape="http://www.inkscape.org/namespaces/inkscape"
   width="99.883316"
   height="100"
   viewBox="0 0 26.427462 26.458333"
   version="1.1"
   id="svg8"
   inkscape:version="0.92.1 r15371"
   sodipodi:docname="black_king.svg">
  <defs
     id="defs2" />
  <sodipodi:namedview
     id="base"
     pagecolor="#ffffff"
     bordercolor="#666666"
     borderopacity="1.0"
     inkscape:pageopacity="0.0"
     inkscape:pageshadow="2"
     inkscape:zoom="2.1089996"
     inkscape:cx="-119.86132"
     inkscape:cy="49.437172"
     inkscape:document-units="mm"
     inkscape:current-layer="text77"
     showgrid="false"
     inkscape:window-width="1920"
     inkscape:window-height="1018"
     inkscape:window-x="-8"
     inkscape:window-y="-8"
     inkscape:window-maximized="1"
     fit-margin-top="0"
     fit-margin-left="0"
     fit-margin-right="0"
     fit-margin-bottom="0"
     units="px" />
  <metadata
     id="metadata5">
    <rdf:RDF>
      <cc:Work
         rdf:about="">
        <dc:format>image/svg+xml</dc:format>
        <dc:type
           rdf:resource="http://purl.org/dc/dcmitype/StillImage" />
        <dc:title></dc:title>
      </cc:Work>
    </rdf:RDF>
  </metadata>
  <g
     inkscape:label="Layer 1"
     inkscape:groupmode="layer"
     id="layer1"
     transform="translate(-52.242468,-44.907197)">
    <text
       xml:space="preserve"
       style="font-style:normal;font-variant:normal;font-weight:normal;font-stretch:normal;font-size:10.58333302px;line-height:1.25;font-family:Tahoma;-inkscape-font-specification:Tahoma;letter-spacing:0px;word-spacing:0px;fill:#000000;fill-opacity:1;stroke:none;stroke-width:0.26458332"
       x="84.288696"
       y="68.702377"
       id="text12"><tspan
         sodipodi:role="line"
         id="tspan10"
         x="84.288696"
         y="78.357872"
         style="font-style:normal;font-variant:normal;font-weight:normal;font-stretch:normal;font-family:Tahoma;-inkscape-font-specification:Tahoma;stroke-width:0.26458332" /></text>
    <text
       xml:space="preserve"
       style="font-style:normal;font-variant:normal;font-weight:normal;font-stretch:normal;font-size:10.58333302px;line-height:1.25;font-family:Tahoma;-inkscape-font-specification:Tahoma;letter-spacing:0px;word-spacing:0px;fill:#000000;fill-opacity:1;stroke:none;stroke-width:0.26458332"
       x="57.679165"
       y="64.695831"
       id="text16"><tspan
         sodipodi:role="line"
         id="tspan14"
         x="57.679165"
         y="74.351326"
         style="stroke-width:0.26458332" /></text>
    <text
       xml:space="preserve"
       style="font-style:normal;font-variant:normal;font-weight:normal;font-stretch:normal;font-size:10.58333302px;line-height:1.25;font-family:Tahoma;-inkscape-font-specification:Tahoma;letter-spacing:0px;word-spacing:0px;fill:#000000;fill-opacity:1;stroke:none;stroke-width:0.26458332"
       x="72.590401"
       y="60.613468"
       id="text20"><tspan
         sodipodi:role="line"
         id="tspan18"
         x="72.590401"
         y="70.268967"
         style="font-style:normal;font-variant:normal;font-weight:normal;font-stretch:normal;font-family:'Arial Unicode MS';-inkscape-font-specification:'Arial Unicode MS';stroke-width:0.26458332" /></text>
    <flowRoot
       xml:space="preserve"
       id="flowRoot22"
       style="font-style:normal;font-variant:normal;font-weight:normal;font-stretch:normal;font-size:40px;line-height:1.25;font-family:Tahoma;-inkscape-font-specification:Tahoma;letter-spacing:0px;word-spacing:0px;fill:#000000;fill-opacity:1;stroke:none"><flowRegion
         id="flowRegion24"><rect
           id="rect26"
           width="56.922096"
           height="60.104076"
           x="259.86176"
           y="192.67427" /></flowRegion><flowPara
         id="flowPara28" /></flowRoot>    <text
       xml:space="preserve"
       style="font-style:normal;font-variant:normal;font-weight:normal;font-stretch:normal;font-size:10.58333302px;line-height:1.25;font-family:Tahoma;-inkscape-font-specification:Tahoma;letter-spacing:0px;word-spacing:0px;fill:#000000;fill-opacity:1;stroke:none;stroke-width:0.26458332"
       x="55.191154"
       y="68.471191"
       id="text32"><tspan
         sodipodi:role="line"
         id="tspan30"
         x="55.191154"
         y="78.126686"
         style="stroke-width:0.26458332" /></text>
    <g
       aria-label="♘"
       style="font-style:normal;font-variant:normal;font-weight:normal;font-stretch:normal;font-size:10.58333302px;line-height:1.25;font-family:'Arial Unicode MS';-inkscape-font-specification:'Arial Unicode MS';letter-spacing:0px;word-spacing:0px;fill:#000000;fill-opacity:1;stroke:none;stroke-width:0.26458332"
       id="text36">
      <g
         aria-label="♞"
         style="font-style:normal;font-variant:normal;font-weight:normal;font-stretch:normal;font-size:31.61415863px;line-height:1.25;font-family:'Arial Unicode MS';-inkscape-font-specification:'Arial Unicode MS';letter-spacing:0px;word-spacing:0px;fill:#000000;fill-opacity:1;stroke:none;stroke-width:0.20911448"
         id="text55">
        <g
           aria-label="♜"
           style="font-style:normal;font-variant:normal;font-weight:normal;font-stretch:normal;font-size:32.3116684px;line-height:1.25;font-family:'Arial Unicode MS';-inkscape-font-specification:'Arial Unicode MS';letter-spacing:0px;word-spacing:0px;fill:#000000;fill-opacity:1;stroke:none;stroke-width:0.16892095"
           id="text77">
          <g
             aria-label="♚"
             style="font-style:normal;font-variant:normal;font-weight:normal;font-stretch:normal;font-size:31.87450981px;line-height:1.25;font-family:'Arial Unicode MS';-inkscape-font-specification:'Arial Unicode MS';letter-spacing:0px;word-spacing:0px;fill:#000000;fill-opacity:1;stroke:none;stroke-width:0.13460682"
             id="text95">
            <path
               d="m 68.864656,52.906948 q 1.727573,-1.820955 4.653553,-1.820955 2.272304,0 3.719731,1.322916 1.447426,1.322917 1.447426,3.361765 0,3.953186 -4.622426,6.47451 v 6.116544 q 0,1.245098 -2.75478,2.085539 -2.754779,0.856005 -5.85196,0.856005 -3.112745,0 -5.867525,-0.856005 -2.739216,-0.840441 -2.739216,-2.085539 v -6.116544 q -4.622426,-2.521324 -4.622426,-6.47451 0,-2.038848 1.447426,-3.361765 1.447427,-1.322916 3.719731,-1.322916 2.910417,0 4.653554,1.820955 0.871568,-1.540808 2.287867,-2.101102 h -1.945465 v -5.836398 h 6.132108 v 5.836398 h -1.945466 q 1.416299,0.560294 2.287868,2.101102 z m -1.245099,-2.972671 v -0.498039 l -1.525245,-1.540809 1.525245,-1.525245 V 45.856581 H 66.856935 L 65.4562,47.257316 64.055464,45.856581 h -0.762622 v 0.513603 l 1.525245,1.525245 -1.525245,1.540809 v 0.498039 h 0.762622 l 1.400736,-1.400735 1.400735,1.400735 z m 0.544731,3.610784 q -0.37353,-0.902696 -1.151716,-1.525245 -0.778186,-0.638113 -1.556372,-0.638113 -0.778187,0 -1.556373,0.638113 -0.778186,0.622549 -1.151716,1.525245 0.653677,0.638113 1.494118,2.225613 0.856005,1.5875 1.213971,2.972672 0.357965,-1.385172 1.198407,-2.972672 0.840441,-1.5875 1.509681,-2.225613 z m -1.151716,-0.09338 q -1.182843,1.540809 -1.556372,2.863725 -0.37353,-1.322916 -1.556373,-2.863725 0.155637,-0.451348 0.638113,-0.809314 0.482475,-0.373529 0.91826,-0.373529 0.435784,0 0.918259,0.373529 0.482476,0.357966 0.638113,0.809314 z m 6.318873,8.186519 q 2.101103,-1.042769 3.268382,-2.583578 1.182843,-1.556372 1.182843,-3.283946 0,-1.727574 -1.182843,-2.754779 -1.167279,-1.027206 -3.081618,-1.027206 -5.18272,0 -7.330514,7.579534 4.575735,0.202328 7.14375,2.069975 z m -5.960907,-2.770343 q 0.824877,-2.848161 2.459069,-4.420098 1.649754,-1.571936 3.688602,-1.571936 1.556373,0 2.459069,0.778186 0.91826,0.778187 0.91826,2.116667 0,1.46299 -0.996079,2.832598 -0.980514,1.354044 -2.568014,2.147794 -2.365687,-1.665318 -5.960907,-1.883211 z m -2.645833,0.700368 q -2.147795,-7.579534 -7.330515,-7.579534 -1.914338,0 -3.097182,1.042769 -1.182843,1.027206 -1.182843,2.739216 0,1.727574 1.182843,3.283946 1.182844,1.540809 3.283947,2.583578 2.552451,-1.867647 7.14375,-2.069975 z m -1.182844,-0.700368 q -3.59522,0.217893 -5.960906,1.883211 -1.5875,-0.79375 -2.583579,-2.147794 -0.980515,-1.369608 -0.980515,-2.832598 0,-1.354044 0.91826,-2.116667 0.91826,-0.778186 2.459069,-0.778186 2.038848,0 3.673039,1.571936 1.649755,1.571937 2.474632,4.420098 z m 3.890932,3.626348 -1.976593,-1.245098 -1.976593,1.245098 1.976593,1.400736 z m 5.743014,3.346201 v -2.614706 l -1.21397,0.747059 z m -14.225245,-1.867647 -1.21397,-0.747059 v 2.614706 z m 14.225245,3.564093 v -0.996078 q -3.175,-1.743137 -7.719607,-1.743137 -4.544608,0 -7.719608,1.743137 v 0.996078 q 1.369608,-0.840441 3.470711,-1.33848 2.116666,-0.513603 4.248897,-0.513603 2.116666,0 4.217769,0.513603 2.116667,0.498039 3.501838,1.33848 z"
               style="stroke-width:0.13460682"
               id="path97" />
          </g>
        </g>
      </g>
    </g>
  </g>
</svg>
