<?xml version="1.0" encoding="UTF-8" standalone="no"?>
<!-- Created with Inkscape (http://www.inkscape.org/) -->

<svg
   xmlns:dc="http://purl.org/dc/elements/1.1/"
   xmlns:cc="http://creativecommons.org/ns#"
   xmlns:rdf="http://www.w3.org/1999/02/22-rdf-syntax-ns#"
   xmlns:svg="http://www.w3.org/2000/svg"
   xmlns="http://www.w3.org/2000/svg"
   xmlns:sodipodi="http://sodipodi.sourceforge.net/DTD/sodipodi-0.dtd"
   xmlns:inkscape="http://www.inkscape.org/namespaces/inkscape"
   width="99.883316"
   height="100"
   viewBox="0 0 26.427462 26.458333"
   version="1.1"
   id="svg8"
   inkscape:version="0.92.1 r15371"
   sodipodi:docname="black_bishop.svg">
  <defs
     id="defs2" />
  <sodipodi:namedview
     id="base"
     pagecolor="#ffffff"
     bordercolor="#666666"
     borderopacity="1.0"
     inkscape:pageopacity="0.0"
     inkscape:pageshadow="2"
     inkscape:zoom="2.1089996"
     inkscape:cx="-119.86132"
     inkscape:cy="49.437172"
     inkscape:document-units="mm"
     inkscape:current-layer="text77"
     showgrid="false"
     inkscape:window-width="1920"
     inkscape:window-height="1018"
     inkscape:window-x="-8"
     inkscape:window-y="-8"
     inkscape:window-maximized="1"
     fit-margin-top="0"
     fit-margin-left="0"
     fit-margin-right="0"
     fit-margin-bottom="0"
     units="px" />
  <metadata
     id="metadata5">
    <rdf:RDF>
      <cc:Work
         rdf:about="">
        <dc:format>image/svg+xml</dc:format>
        <dc:type
           rdf:resource="http://purl.org/dc/dcmitype/StillImage" />
        <dc:title></dc:title>
      </cc:Work>
    </rdf:RDF>
  </metadata>
  <g
     inkscape:label="Layer 1"
     inkscape:groupmode="layer"
     id="layer1"
     transform="translate(-52.242468,-44.907197)">
    <text
       xml:space="preserve"
       style="font-style:normal;font-variant:normal;font-weight:normal;font-stretch:normal;font-size:10.58333302px;line-height:1.25;font-family:Tahoma;-inkscape-font-specification:Tahoma;letter-spacing:0px;word-spacing:0px;fill:#000000;fill-opacity:1;stroke:none;stroke-width:0.26458332"
       x="84.288696"
       y="68.702377"
       id="text12"><tspan
         sodipodi:role="line"
         id="tspan10"
         x="84.288696"
         y="78.357872"
         style="font-style:normal;font-variant:normal;font-weight:normal;font-stretch:normal;font-family:Tahoma;-inkscape-font-specification:Tahoma;stroke-width:0.26458332" /></text>
    <text
       xml:space="preserve"
       style="font-style:normal;font-variant:normal;font-weight:normal;font-stretch:normal;font-size:10.58333302px;line-height:1.25;font-family:Tahoma;-inkscape-font-specification:Tahoma;letter-spacing:0px;word-spacing:0px;fill:#000000;fill-opacity:1;stroke:none;stroke-width:0.26458332"
       x="57.679165"
       y="64.695831"
       id="text16"><tspan
         sodipodi:role="line"
         id="tspan14"
         x="57.679165"
         y="74.351326"
         style="stroke-width:0.26458332" /></text>
    <text
       xml:space="preserve"
       style="font-style:normal;font-variant:normal;font-weight:normal;font-stretch:normal;font-size:10.58333302px;line-height:1.25;font-family:Tahoma;-inkscape-font-specification:Tahoma;letter-spacing:0px;word-spacing:0px;fill:#000000;fill-opacity:1;stroke:none;stroke-width:0.26458332"
       x="72.590401"
       y="60.613468"
       id="text20"><tspan
         sodipodi:role="line"
         id="tspan18"
         x="72.590401"
         y="70.268967"
         style="font-style:normal;font-variant:normal;font-weight:normal;font-stretch:normal;font-family:'Arial Unicode MS';-inkscape-font-specification:'Arial Unicode MS';stroke-width:0.26458332" /></text>
    <flowRoot
       xml:space="preserve"
       id="flowRoot22"
       style="font-style:normal;font-variant:normal;font-weight:normal;font-stretch:normal;font-size:40px;line-height:1.25;font-family:Tahoma;-inkscape-font-specification:Tahoma;letter-spacing:0px;word-spacing:0px;fill:#000000;fill-opacity:1;stroke:none"><flowRegion
         id="flowRegion24"><rect
           id="rect26"
           width="56.922096"
           height="60.104076"
           x="259.86176"
           y="192.67427" /></flowRegion><flowPara
         id="flowPara28" /></flowRoot>    <text
       xml:space="preserve"
       style="font-style:normal;font-variant:normal;font-weight:normal;font-stretch:normal;font-size:10.58333302px;line-height:1.25;font-family:Tahoma;-inkscape-font-specification:Tahoma;letter-spacing:0px;word-spacing:0px;fill:#000000;fill-opacity:1;stroke:none;stroke-width:0.26458332"
       x="55.191154"
       y="68.471191"
       id="text32"><tspan
         sodipodi:role="line"
         id="tspan30"
         x="55.191154"
         y="78.126686"
         style="stroke-width:0.26458332" /></text>
    <g
       aria-label="♘"
       style="font-style:normal;font-variant:normal;font-weight:normal;font-stretch:normal;font-size:10.58333302px;line-height:1.25;font-family:'Arial Unicode MS';-inkscape-font-specification:'Arial Unicode MS';letter-spacing:0px;word-spacing:0px;fill:#000000;fill-opacity:1;stroke:none;stroke-width:0.26458332"
       id="text36">
      <g
         aria-label="♞"
         style="font-style:normal;font-variant:normal;font-weight:normal;font-stretch:normal;font-size:31.61415863px;line-height:1.25;font-family:'Arial Unicode MS';-inkscape-font-specification:'Arial Unicode MS';letter-spacing:0px;word-spacing:0px;fill:#000000;fill-opacity:1;stroke:none;stroke-width:0.20911448"
         id="text55">
        <g
           aria-label="♜"
           style="font-style:normal;font-variant:normal;font-weight:normal;font-stretch:normal;font-size:32.3116684px;line-height:1.25;font-family:'Arial Unicode MS';-inkscape-font-specification:'Arial Unicode MS';letter-spacing:0px;word-spacing:0px;fill:#000000;fill-opacity:1;stroke:none;stroke-width:0.16892095"
           id="text77">
          <g
             aria-label="♝"
             style="font-style:normal;font-variant:normal;font-weight:normal;font-stretch:normal;font-size:31.87450981px;line-height:1.25;font-family:'Arial Unicode MS';-inkscape-font-specification:'Arial Unicode MS';letter-spacing:0px;word-spacing:0px;fill:#000000;fill-opacity:1;stroke:none;stroke-width:0.13460682"
             id="text84">
            <path
               d="m 78.685366,71.046474 h -3.501838 q 0,-0.544731 -0.902696,-0.544731 -0.202328,0 -1.556373,0.171201 -2.303431,0.280147 -2.863725,0.280147 -1.774265,0 -2.972672,-0.762622 -1.182843,-0.762623 -1.431862,-2.069976 -0.24902,1.307353 -1.447427,2.069976 -1.182843,0.762622 -2.957108,0.762622 -0.560294,0 -2.863725,-0.280147 -1.369608,-0.171201 -1.556373,-0.171201 -0.902696,0 -0.902696,0.544731 h -3.501838 v -0.762623 q 0,-0.747059 0.575858,-1.525245 0.575858,-0.778186 1.727573,-1.229534 1.16728,-0.466912 2.832598,-0.466912 0.747059,0 2.101103,0.202328 0.933824,0.140074 1.307353,0.140074 0.949388,0 1.385172,-0.217892 0.435784,-0.233456 0.996078,-1.073897 -2.085539,-0.342402 -2.770343,-1.058334 v -4.046568 q -2.194485,-1.540809 -2.194485,-3.922059 0,-1.213971 0.606985,-2.194486 0.606985,-0.996078 1.478554,-1.743137 l 4.388971,-3.71973 q -1.369608,-0.591422 -1.369608,-2.038848 0,-0.902696 0.622549,-1.525245 0.638113,-0.638113 1.540809,-0.638113 0.902696,0 1.525245,0.638113 0.638112,0.622549 0.638112,1.525245 0,1.447426 -1.369607,2.038848 4.124387,3.486274 4.855882,4.171078 0.731495,0.684804 1.167279,1.603064 0.451348,0.902696 0.451348,1.883211 0,2.38125 -2.194485,3.922059 v 4.046568 q -0.700367,0.715932 -2.785907,1.058334 0.575858,0.840441 1.011642,1.073897 0.435785,0.217892 1.385172,0.217892 0.357966,0 1.307353,-0.140074 1.354044,-0.202328 2.101103,-0.202328 2.50576,0 3.813113,0.996078 1.322916,0.996079 1.322916,2.225613 z M 65.4562,48.603581 q 0.498039,0 0.856005,-0.357965 0.357965,-0.357966 0.357965,-0.856005 0,-0.498039 -0.357965,-0.840441 -0.357966,-0.357966 -0.856005,-0.357966 -0.49804,0 -0.856005,0.357966 -0.357966,0.342402 -0.357966,0.840441 0,0.498039 0.357966,0.856005 0.357965,0.357965 0.856005,0.357965 z m 2.350122,7.750736 v -0.902696 h -1.898774 v -1.898775 h -0.902696 v 1.898775 h -1.914339 v 0.902696 h 1.914339 v 1.914338 h 0.902696 v -1.914338 z m 1.852084,4.108823 q -2.645834,-0.700367 -4.202206,-0.700367 -1.571937,0 -4.202206,0.700367 l 0.03113,0.887133 q 2.054412,-0.700368 4.171079,-0.700368 2.116666,0 4.171078,0.700368 z m -2.925981,1.665319 -1.276225,-0.840441 -1.276226,0.840441 1.276226,0.824877 z m 2.894853,1.229534 v -1.369608 l -0.762622,0.513603 z m -7.579534,-0.856005 -0.762623,-0.513603 v 1.369608 z m 7.579534,2.552451 v -0.856005 q -1.416299,-0.513603 -4.171078,-0.513603 -2.75478,0 -4.171079,0.513603 v 0.856005 q 1.400736,-0.482475 4.171079,-0.482475 2.770343,0 4.171078,0.482475 z"
               style="stroke-width:0.13460682"
               id="path86" />
          </g>
        </g>
      </g>
    </g>
  </g>
</svg>
