<?xml version="1.0" encoding="UTF-8" standalone="no"?>
<!-- Created with Inkscape (http://www.inkscape.org/) -->

<svg
   xmlns:dc="http://purl.org/dc/elements/1.1/"
   xmlns:cc="http://creativecommons.org/ns#"
   xmlns:rdf="http://www.w3.org/1999/02/22-rdf-syntax-ns#"
   xmlns:svg="http://www.w3.org/2000/svg"
   xmlns="http://www.w3.org/2000/svg"
   xmlns:sodipodi="http://sodipodi.sourceforge.net/DTD/sodipodi-0.dtd"
   xmlns:inkscape="http://www.inkscape.org/namespaces/inkscape"
   width="99.883316"
   height="100"
   viewBox="0 0 26.427462 26.458333"
   version="1.1"
   id="svg8"
   inkscape:version="0.92.1 r15371"
   sodipodi:docname="black_knight.svg">
  <defs
     id="defs2" />
  <sodipodi:namedview
     id="base"
     pagecolor="#ffffff"
     bordercolor="#666666"
     borderopacity="1.0"
     inkscape:pageopacity="0.0"
     inkscape:pageshadow="2"
     inkscape:zoom="2.1089996"
     inkscape:cx="-119.86132"
     inkscape:cy="49.437172"
     inkscape:document-units="mm"
     inkscape:current-layer="text55"
     showgrid="false"
     inkscape:window-width="1920"
     inkscape:window-height="1018"
     inkscape:window-x="-8"
     inkscape:window-y="-8"
     inkscape:window-maximized="1"
     fit-margin-top="0"
     fit-margin-left="0"
     fit-margin-right="0"
     fit-margin-bottom="0"
     units="px" />
  <metadata
     id="metadata5">
    <rdf:RDF>
      <cc:Work
         rdf:about="">
        <dc:format>image/svg+xml</dc:format>
        <dc:type
           rdf:resource="http://purl.org/dc/dcmitype/StillImage" />
        <dc:title></dc:title>
      </cc:Work>
    </rdf:RDF>
  </metadata>
  <g
     inkscape:label="Layer 1"
     inkscape:groupmode="layer"
     id="layer1"
     transform="translate(-52.242468,-44.907197)">
    <text
       xml:space="preserve"
       style="font-style:normal;font-variant:normal;font-weight:normal;font-stretch:normal;font-size:10.58333302px;line-height:1.25;font-family:Tahoma;-inkscape-font-specification:Tahoma;letter-spacing:0px;word-spacing:0px;fill:#000000;fill-opacity:1;stroke:none;stroke-width:0.26458332"
       x="84.288696"
       y="68.702377"
       id="text12"><tspan
         sodipodi:role="line"
         id="tspan10"
         x="84.288696"
         y="78.357872"
         style="font-style:normal;font-variant:normal;font-weight:normal;font-stretch:normal;font-family:Tahoma;-inkscape-font-specification:Tahoma;stroke-width:0.26458332" /></text>
    <text
       xml:space="preserve"
       style="font-style:normal;font-variant:normal;font-weight:normal;font-stretch:normal;font-size:10.58333302px;line-height:1.25;font-family:Tahoma;-inkscape-font-specification:Tahoma;letter-spacing:0px;word-spacing:0px;fill:#000000;fill-opacity:1;stroke:none;stroke-width:0.26458332"
       x="57.679165"
       y="64.695831"
       id="text16"><tspan
         sodipodi:role="line"
         id="tspan14"
         x="57.679165"
         y="74.351326"
         style="stroke-width:0.26458332" /></text>
    <text
       xml:space="preserve"
       style="font-style:normal;font-variant:normal;font-weight:normal;font-stretch:normal;font-size:10.58333302px;line-height:1.25;font-family:Tahoma;-inkscape-font-specification:Tahoma;letter-spacing:0px;word-spacing:0px;fill:#000000;fill-opacity:1;stroke:none;stroke-width:0.26458332"
       x="72.590401"
       y="60.613468"
       id="text20"><tspan
         sodipodi:role="line"
         id="tspan18"
         x="72.590401"
         y="70.268967"
         style="font-style:normal;font-variant:normal;font-weight:normal;font-stretch:normal;font-family:'Arial Unicode MS';-inkscape-font-specification:'Arial Unicode MS';stroke-width:0.26458332" /></text>
    <flowRoot
       xml:space="preserve"
       id="flowRoot22"
       style="font-style:normal;font-variant:normal;font-weight:normal;font-stretch:normal;font-size:40px;line-height:1.25;font-family:Tahoma;-inkscape-font-specification:Tahoma;letter-spacing:0px;word-spacing:0px;fill:#000000;fill-opacity:1;stroke:none"><flowRegion
         id="flowRegion24"><rect
           id="rect26"
           width="56.922096"
           height="60.104076"
           x="259.86176"
           y="192.67427" /></flowRegion><flowPara
         id="flowPara28" /></flowRoot>    <text
       xml:space="preserve"
       style="font-style:normal;font-variant:normal;font-weight:normal;font-stretch:normal;font-size:10.58333302px;line-height:1.25;font-family:Tahoma;-inkscape-font-specification:Tahoma;letter-spacing:0px;word-spacing:0px;fill:#000000;fill-opacity:1;stroke:none;stroke-width:0.26458332"
       x="55.191154"
       y="68.471191"
       id="text32"><tspan
         sodipodi:role="line"
         id="tspan30"
         x="55.191154"
         y="78.126686"
         style="stroke-width:0.26458332" /></text>
    <g
       aria-label="♘"
       style="font-style:normal;font-variant:normal;font-weight:normal;font-stretch:normal;font-size:10.58333302px;line-height:1.25;font-family:'Arial Unicode MS';-inkscape-font-specification:'Arial Unicode MS';letter-spacing:0px;word-spacing:0px;fill:#000000;fill-opacity:1;stroke:none;stroke-width:0.26458332"
       id="text36">
      <g
         aria-label="♞"
         style="font-style:normal;font-variant:normal;font-weight:normal;font-stretch:normal;font-size:31.61415863px;line-height:1.25;font-family:'Arial Unicode MS';-inkscape-font-specification:'Arial Unicode MS';letter-spacing:0px;word-spacing:0px;fill:#000000;fill-opacity:1;stroke:none;stroke-width:0.20911448"
         id="text55">
        <path
           d="M 78.669929,71.365531 H 59.574853 q 0,-2.886644 0.725521,-4.430304 0.72552,-1.543661 2.562475,-2.608786 2.330927,-1.342984 2.330927,-3.396052 0,-0.463098 -0.308732,-0.941633 -0.81814,0.663774 -4.368558,1.512787 -1.234928,0.355042 -1.512787,2.377237 -0.154366,0.957069 -0.6329,1.49735 -0.463099,0.524844 -1.111436,0.524844 -0.617464,0 -1.065125,-0.123492 0,-0.81814 0.154366,-1.265802 0.169802,-0.447661 0.571154,-0.926196 0.432225,-0.586591 0.432225,-1.034252 0,-0.571154 -0.524845,-0.571154 -0.416788,0 -1.142308,1.40473 -0.833576,1.63628 -1.049689,1.667153 -2.392673,-1.40473 -2.392673,-3.519545 0,-1.296674 1.790646,-3.689347 1.296674,-1.744336 1.651716,-2.438983 0.355042,-0.694647 0.478535,-1.713463 0.123492,-1.111435 0.262422,-1.559097 0.154366,-0.463098 0.67921,-1.250364 0.694647,-1.018816 0.86445,-1.744336 0.185239,-0.72552 0.185239,-1.975885 v -1.929575 q 1.451041,0.6329 2.809461,2.963827 l 0.81814,-0.03087 q 0.586591,-1.034252 0.879887,-3.257123 1.080562,0.493971 1.975884,1.883265 0.895323,1.373858 1.250365,1.914139 6.637739,0.849013 9.709622,4.908839 3.071884,4.044389 3.071884,13.769448 z M 61.627921,49.183136 q -0.586591,0 -1.250364,0.339605 -0.648338,0.339605 -0.740957,0.957069 0.432225,0 1.034252,-0.185239 0.617464,-0.200676 0.740957,-0.493971 0.138929,-0.293296 0.216112,-0.617464 z m 15.452038,21.302509 v -2.469856 q 0,-7.872667 -1.58997,-11.562014 -1.58997,-3.704785 -4.399431,-5.186698 -2.809462,-1.497351 -4.538361,-1.497351 -0.632901,0 -0.632901,0.478535 0,0.154366 0.13893,0.324169 0.138929,0.154366 0.277859,0.185239 4.245065,1.065125 6.344443,4.538361 2.099377,3.457798 2.099377,10.512325 0,1.914138 -0.447661,4.67729 z M 61.211133,53.474511 61.08764,53.196652 h -0.694647 q -0.524844,0 -1.342984,0.555717 -0.802703,0.540281 -0.802703,1.080562 0,0.385916 0.72552,0.95707 v -0.663774 l 0.123493,-0.200676 0.663774,0.09262 q 0.540281,-0.277859 0.540281,-0.493972 l -0.06175,-0.602027 q 0.385915,-0.308732 0.972506,-0.447661 z m -6.31357,7.054526 q -0.478534,0 -0.802703,0.324169 -0.308732,0.308732 -0.308732,0.77183 0,0.740957 0.478535,0.740957 0.231549,0 0.416788,-0.169803 0.185239,-0.169803 0.185239,-0.432225 l -0.447661,-0.540281 q 0.355042,-0.277859 0.478534,-0.694647 z"
           style="stroke-width:0.20911448"
           id="path57" />
      </g>
    </g>
  </g>
</svg>
