<?xml version="1.0" encoding="UTF-8" standalone="no"?>
<!-- Created with Inkscape (http://www.inkscape.org/) -->

<svg
   xmlns:dc="http://purl.org/dc/elements/1.1/"
   xmlns:cc="http://creativecommons.org/ns#"
   xmlns:rdf="http://www.w3.org/1999/02/22-rdf-syntax-ns#"
   xmlns:svg="http://www.w3.org/2000/svg"
   xmlns="http://www.w3.org/2000/svg"
   xmlns:sodipodi="http://sodipodi.sourceforge.net/DTD/sodipodi-0.dtd"
   xmlns:inkscape="http://www.inkscape.org/namespaces/inkscape"
   width="100"
   height="100"
   viewBox="0 0 26.458333 26.458334"
   version="1.1"
   id="svg68"
   inkscape:version="0.92.1 r15371"
   sodipodi:docname="white_queen.svg">
  <defs
     id="defs62" />
  <sodipodi:namedview
     id="base"
     pagecolor="#ffffff"
     bordercolor="#666666"
     borderopacity="1.0"
     inkscape:pageopacity="0.0"
     inkscape:pageshadow="2"
     inkscape:zoom="5.6"
     inkscape:cx="37.734236"
     inkscape:cy="62.746412"
     inkscape:document-units="mm"
     inkscape:current-layer="text3777"
     showgrid="false"
     units="px"
     inkscape:window-width="1920"
     inkscape:window-height="1018"
     inkscape:window-x="-8"
     inkscape:window-y="-8"
     inkscape:window-maximized="1" />
  <metadata
     id="metadata65">
    <rdf:RDF>
      <cc:Work
         rdf:about="">
        <dc:format>image/svg+xml</dc:format>
        <dc:type
           rdf:resource="http://purl.org/dc/dcmitype/StillImage" />
        <dc:title></dc:title>
      </cc:Work>
    </rdf:RDF>
  </metadata>
  <g
     inkscape:label="Layer 1"
     inkscape:groupmode="layer"
     id="layer1"
     transform="translate(0,-270.54165)">
    <g
       aria-label="♙"
       style="font-style:normal;font-variant:normal;font-weight:normal;font-stretch:normal;font-size:32.49278641px;line-height:1.25;font-family:'Arial Unicode MS';-inkscape-font-specification:'Arial Unicode MS';letter-spacing:0px;word-spacing:0px;fill:#000000;fill-opacity:1;stroke:none;stroke-width:0.81231964"
       id="text72" />
    <g
       aria-label="♖"
       style="font-style:normal;font-variant:normal;font-weight:normal;font-stretch:normal;font-size:32.16291046px;line-height:1.25;font-family:'Arial Unicode MS';-inkscape-font-specification:'Arial Unicode MS';letter-spacing:0px;word-spacing:0px;fill:#000000;fill-opacity:1;stroke:none;stroke-width:0.8040728"
       id="text3770">
      <g
         aria-label="♕"
         style="font-style:normal;font-variant:normal;font-weight:normal;font-stretch:normal;font-size:28.97223854px;line-height:1.25;font-family:'Arial Unicode MS';-inkscape-font-specification:'Arial Unicode MS';letter-spacing:0px;word-spacing:0px;fill:#000000;fill-opacity:1;stroke:none;stroke-width:0.58239472"
         id="text3777">
        <path
           d="m 18.930247,282.81593 2.532241,-2.71615 q 2.518095,-2.68786 2.518095,-2.67371 -0.551717,-0.46684 -0.551717,-1.18831 0,-0.6366 0.438544,-1.07515 0.438545,-0.43854 1.060996,-0.43854 0.636597,0 1.075141,0.43854 0.438545,0.43855 0.438545,1.07515 0,0.62245 -0.438545,1.06099 -0.438544,0.43855 -1.075141,0.43855 h -0.16976 l -3.706409,8.84162 v 6.77622 q 0,1.13173 -2.503948,1.89565 -2.503949,0.77806 -5.319122,0.77806 -2.829321,0 -5.3332689,-0.77806 -2.4898018,-0.76392 -2.4898018,-1.89565 v -6.77622 L 1.6996869,277.7373 H 1.5299277 q -0.63659703,0 -1.07514166,-0.43855 -0.43854463,-0.43854 -0.43854463,-1.06099 0,-0.6366 0.43854463,-1.07515 0.43854463,-0.43854 1.07514166,-0.43854 0.6224504,0 1.0609951,0.43854 0.4385446,0.43855 0.4385446,1.07515 0,0.73562 -0.5517174,1.16002 l 5.0361899,5.41815 -0.4243981,-7.35624 q -0.6083038,0 -1.0468484,-0.43854 -0.4385446,-0.45269 -0.4385446,-1.07514 0,-0.6366 0.4385446,-1.061 0.4385446,-0.43854 1.0751416,-0.43854 0.6224505,0 1.0609951,0.43854 0.4385446,0.43855 0.4385446,1.061 0,0.80635 -0.6931834,1.27319 l 3.2820117,6.63476 1.584419,-7.38453 q -1.075142,-0.33952 -1.075142,-1.44295 0,-0.6366 0.438545,-1.07514 0.438545,-0.43855 1.075142,-0.43855 0.62245,0 1.060995,0.43855 0.438544,0.43854 0.438544,1.07514 0,1.10343 -1.060995,1.44295 l 1.58442,7.38453 3.282011,-6.63476 q -0.693184,-0.4244 -0.693184,-1.27319 0,-0.62245 0.438545,-1.061 0.438545,-0.43854 1.060995,-0.43854 0.622451,0 1.060995,0.43854 0.452691,0.43855 0.452691,1.061 0,0.62245 -0.438544,1.07514 -0.438545,0.43854 -1.046849,0.43854 z m -5.70108,-9.09627 q 0.282932,0 0.480984,-0.2122 0.212199,-0.2122 0.212199,-0.48098 0,-0.28293 -0.212199,-0.49513 -0.198052,-0.2122 -0.480984,-0.2122 -0.282932,0 -0.495131,0.2122 -0.198053,0.2122 -0.198053,0.49513 0,0.26878 0.198053,0.48098 0.212199,0.2122 0.495131,0.2122 z m 6.111331,0.91953 q 0.282932,0 0.480985,-0.19805 0.212199,-0.2122 0.212199,-0.49513 0,-0.28293 -0.212199,-0.48099 -0.198053,-0.2122 -0.480985,-0.2122 -0.282932,0 -0.495131,0.2122 -0.198052,0.19806 -0.198052,0.48099 0,0.28293 0.198052,0.49513 0.212199,0.19805 0.495131,0.19805 z m -12.222663,0 q 0.2829321,0 0.4809845,-0.19805 0.212199,-0.2122 0.212199,-0.49513 0,-0.28293 -0.212199,-0.48099 -0.1980524,-0.2122 -0.4809845,-0.2122 -0.282932,0 -0.495131,0.2122 -0.1980524,0.19806 -0.1980524,0.48099 0,0.28293 0.1980524,0.49513 0.212199,0.19805 0.495131,0.19805 z m 17.810571,2.29175 q 0.282932,0 0.480984,-0.19805 0.212199,-0.2122 0.212199,-0.49513 0,-0.28294 -0.212199,-0.48099 -0.198052,-0.2122 -0.480984,-0.2122 -0.282933,0 -0.495132,0.2122 -0.198052,0.19805 -0.198052,0.48099 0,0.28293 0.198052,0.49513 0.212199,0.19805 0.495132,0.19805 z m -23.3984783,0 q 0.2687854,0 0.4809844,-0.19805 0.212199,-0.2122 0.212199,-0.49513 0,-0.28294 -0.212199,-0.48099 -0.212199,-0.2122 -0.4809844,-0.2122 -0.282932,0 -0.495131,0.2122 -0.21219904,0.19805 -0.21219904,0.48099 0,0.28293 0.21219904,0.49513 0.212199,0.19805 0.495131,0.19805 z m 21.6018593,2.57468 -5.149363,5.50303 0.424399,-7.66746 -3.465918,6.97428 -1.711738,-8.04942 -1.711739,8.04942 -3.4800639,-6.97428 0.4385446,7.66746 -5.1635093,-5.50303 3.1122522,7.42697 q 2.5039483,-1.57028 6.8045154,-1.57028 4.28642,0 6.804515,1.57028 z m -2.885906,12.19437 v -0.6366 l -1.103435,-1.69759 1.103435,-0.67903 v -0.4244 q -0.721477,-0.94782 -2.673708,-1.51369 -1.938084,-0.58001 -4.343006,-0.58001 -2.404923,0 -4.3571535,0.58001 -1.9380843,0.56587 -2.6595609,1.51369 v 0.4244 l 1.1034349,0.67903 -1.1034349,1.69759 v 0.6366 q 2.8859066,-1.58442 7.0167144,-1.58442 4.130807,0 7.016714,1.58442 z m -5.220096,-3.67811 -1.796618,1.27319 -1.796619,-1.27319 1.796619,-1.13173 z m -1.796618,7.18647 q 2.107843,0 4.555205,-0.67904 2.461509,-0.66489 2.461509,-1.4571 0,-0.70733 -2.235163,-1.42881 -2.221017,-0.72147 -4.781551,-0.72147 -2.560535,0 -4.7956981,0.72147 -2.2210163,0.72148 -2.2210163,1.42881 0,0.79221 2.4473619,1.4571 2.4615085,0.67904 4.5693525,0.67904 z"
           style="stroke-width:0.58239472"
           id="path3779" />
      </g>
    </g>
  </g>
</svg>
