<?xml version="1.0" encoding="UTF-8" standalone="no"?>
<!-- Created with Inkscape (http://www.inkscape.org/) -->

<svg
   xmlns:dc="http://purl.org/dc/elements/1.1/"
   xmlns:cc="http://creativecommons.org/ns#"
   xmlns:rdf="http://www.w3.org/1999/02/22-rdf-syntax-ns#"
   xmlns:svg="http://www.w3.org/2000/svg"
   xmlns="http://www.w3.org/2000/svg"
   xmlns:sodipodi="http://sodipodi.sourceforge.net/DTD/sodipodi-0.dtd"
   xmlns:inkscape="http://www.inkscape.org/namespaces/inkscape"
   width="100"
   height="100"
   viewBox="0 0 26.458333 26.458334"
   version="1.1"
   id="svg68"
   inkscape:version="0.92.1 r15371"
   sodipodi:docname="white_bishop.svg">
  <defs
     id="defs62" />
  <sodipodi:namedview
     id="base"
     pagecolor="#ffffff"
     bordercolor="#666666"
     borderopacity="1.0"
     inkscape:pageopacity="0.0"
     inkscape:pageshadow="2"
     inkscape:zoom="5.6"
     inkscape:cx="37.734236"
     inkscape:cy="62.746412"
     inkscape:document-units="mm"
     inkscape:current-layer="layer1"
     showgrid="false"
     units="px"
     inkscape:window-width="1920"
     inkscape:window-height="1018"
     inkscape:window-x="-8"
     inkscape:window-y="-8"
     inkscape:window-maximized="1" />
  <metadata
     id="metadata65">
    <rdf:RDF>
      <cc:Work
         rdf:about="">
        <dc:format>image/svg+xml</dc:format>
        <dc:type
           rdf:resource="http://purl.org/dc/dcmitype/StillImage" />
        <dc:title></dc:title>
      </cc:Work>
    </rdf:RDF>
  </metadata>
  <g
     inkscape:label="Layer 1"
     inkscape:groupmode="layer"
     id="layer1"
     transform="translate(0,-270.54165)">
    <g
       aria-label="♙"
       style="font-style:normal;font-variant:normal;font-weight:normal;font-stretch:normal;font-size:32.49278641px;line-height:1.25;font-family:'Arial Unicode MS';-inkscape-font-specification:'Arial Unicode MS';letter-spacing:0px;word-spacing:0px;fill:#000000;fill-opacity:1;stroke:none;stroke-width:0.81231964"
       id="text72" />
    <g
       aria-label="♗"
       transform="scale(1.0230594,0.97746035)"
       style="font-style:normal;font-variant:normal;font-weight:normal;font-stretch:normal;font-size:31.04131889px;line-height:1.25;font-family:'Arial Unicode MS';-inkscape-font-specification:'Arial Unicode MS';letter-spacing:0px;word-spacing:0px;fill:#000000;fill-opacity:1;stroke:none;stroke-width:0.77603298"
       id="text3760">
      <path
         d="m 25.791255,302.6956 h -3.410301 q 0,-0.53049 -0.8791,-0.53049 -0.19704,0 -1.51569,0.16673 -2.24322,0.27282 -2.788868,0.27282 -1.727886,0 -2.894967,-0.74269 -1.151924,-0.74268 -1.394434,-2.01586 -0.24251,1.27318 -1.409591,2.01586 -1.151924,0.74269 -2.87981,0.74269 -0.5456482,0 -2.7888685,-0.27282 -1.3338067,-0.16673 -1.5156894,-0.16673 -0.8790999,0 -0.8790999,0.53049 H 0.02453508 v -0.74269 q 0,-0.72753 0.56080508,-1.48537 0.56080504,-0.75785 1.68241524,-1.1974 1.136767,-0.4547 2.7585547,-0.4547 0.7275309,0 2.0461807,0.19704 0.9094136,0.13641 1.2731791,0.13641 0.9245705,0 1.3489635,-0.2122 0.4243926,-0.22735 0.9700416,-1.04582 -2.0310241,-0.33345 -2.6979275,-1.03067 v -3.94079 q -2.137122,-1.50054 -2.137122,-3.81954 0,-1.18224 0.5911188,-2.13712 0.5911189,-0.97004 1.439905,-1.69758 l 4.2742437,-3.62249 q -1.333806,-0.57597 -1.333806,-1.98556 0,-0.8791 0.606275,-1.48537 0.621433,-0.62143 1.500533,-0.62143 0.8791,0 1.485376,0.62143 0.621432,0.60627 0.621432,1.48537 0,1.40959 -1.333806,1.98556 4.016576,3.39514 4.72895,4.06204 0.712375,0.66691 1.136768,1.56116 0.439549,0.8791 0.439549,1.83399 0,2.319 -2.137122,3.81954 v 3.94079 q -0.68206,0.69722 -2.713084,1.03067 0.560805,0.81847 0.985198,1.04582 0.424394,0.2122 1.348964,0.2122 0.348609,0 1.273179,-0.13641 1.31865,-0.19704 2.046181,-0.19704 2.44026,0 3.713439,0.97004 1.288336,0.97004 1.288336,2.16743 z m -12.88336,-21.85624 q 0.485021,0 0.833629,-0.34861 0.348609,-0.34861 0.348609,-0.83363 0,-0.48502 -0.348609,-0.81847 -0.348608,-0.34861 -0.833629,-0.34861 -0.485021,0 -0.833629,0.34861 -0.348609,0.33345 -0.348609,0.81847 0,0.48502 0.348609,0.83363 0.348608,0.34861 0.833629,0.34861 z m 4.092361,11.54955 q 0.939728,-0.3486 1.530847,-1.27317 0.591119,-0.92458 0.591119,-2.01587 0,-1.63695 -2.106809,-3.45577 -2.106808,-1.83399 -4.107518,-3.65282 l -3.1071633,2.75856 q -1.6672583,1.47022 -2.0916514,1.9704 -0.424393,0.48502 -0.7275309,1.15192 -0.287981,0.65175 -0.287981,1.22771 0,1.09129 0.5911189,2.01587 0.5911189,0.92457 1.5308463,1.27317 2.5615154,-0.68206 4.0923614,-0.68206 1.515689,0 4.092361,0.68206 z m -1.80367,-4.00142 h -1.849141 v 1.8643 h -0.8791 v -1.8643 h -1.864298 v -0.8791 h 1.864298 v -1.84914 h 0.8791 v 1.84914 h 1.849141 z m 1.773357,7.63908 v -0.81847 l -0.742688,-0.83363 0.742688,-0.50018 v -0.62143 q -2.00071,-0.68206 -4.062048,-0.68206 -2.061338,0 -4.0620476,0.68206 v 0.62143 l 0.7426878,0.50018 -0.7426878,0.83363 v 0.81847 q 1.3792776,-0.50018 4.0620476,-0.50018 2.68277,0 4.062048,0.50018 z m -2.819183,-2.01587 -1.242865,0.80332 -1.242865,-0.80332 1.242865,-0.81847 z m 2.319005,2.72824 q -0.863943,-0.34861 -3.56187,-0.34861 -2.713084,0 -3.577027,0.34861 1.151924,0.48502 3.577027,0.48502 2.409946,0 3.56187,-0.48502 z m 8.44239,5.09272 q -0.485021,-2.15228 -4.031734,-2.15228 -0.48502,0 -1.788513,0.18188 -1.242866,0.16673 -1.682416,0.16673 -1.182237,0 -1.833984,-0.51534 -0.651746,-0.50017 -1.303493,-1.53084 h -0.92457 q 0,3.74375 3.849851,3.74375 0.454707,0 2.576672,-0.24251 1.500532,-0.18188 1.727886,-0.18188 0.848786,0 1.36412,0.53049 z m -12.44381,-3.84985 h -0.92457 q -0.651747,1.03067 -1.31865,1.53084 -0.6517467,0.51534 -1.8188275,0.51534 -0.43955,0 -1.6824153,-0.16673 -1.3034929,-0.18188 -1.7885135,-0.18188 -3.5467132,0 -4.04689066,2.15228 H 2.9346587 q 0.5304913,-0.53049 1.3792774,-0.53049 0.2273534,0 1.7278859,0.18188 2.1068083,0.24251 2.576672,0.24251 3.849851,0 3.849851,-3.74375 z"
         style="stroke-width:0.77603298"
         id="path3765" />
    </g>
  </g>
</svg>
