<?xml version="1.0" encoding="UTF-8" standalone="no"?>
<!-- Created with Inkscape (http://www.inkscape.org/) -->

<svg
   xmlns:dc="http://purl.org/dc/elements/1.1/"
   xmlns:cc="http://creativecommons.org/ns#"
   xmlns:rdf="http://www.w3.org/1999/02/22-rdf-syntax-ns#"
   xmlns:svg="http://www.w3.org/2000/svg"
   xmlns="http://www.w3.org/2000/svg"
   xmlns:sodipodi="http://sodipodi.sourceforge.net/DTD/sodipodi-0.dtd"
   xmlns:inkscape="http://www.inkscape.org/namespaces/inkscape"
   width="42.678772mm"
   height="42.553467mm"
   viewBox="0 0 42.678772 42.553467"
   version="1.1"
   id="svg8"
   inkscape:version="0.92.1 r15371"
   sodipodi:docname="white_knight.svg">
  <defs
     id="defs2" />
  <sodipodi:namedview
     id="base"
     pagecolor="#ffffff"
     bordercolor="#666666"
     borderopacity="1.0"
     inkscape:pageopacity="0.0"
     inkscape:pageshadow="2"
     inkscape:zoom="2.1089996"
     inkscape:cx="4.5701072"
     inkscape:cy="86.294432"
     inkscape:document-units="mm"
     inkscape:current-layer="text36"
     showgrid="false"
     inkscape:window-width="1920"
     inkscape:window-height="1018"
     inkscape:window-x="-8"
     inkscape:window-y="-8"
     inkscape:window-maximized="1"
     fit-margin-top="0"
     fit-margin-left="0"
     fit-margin-right="0"
     fit-margin-bottom="0" />
  <metadata
     id="metadata5">
    <rdf:RDF>
      <cc:Work
         rdf:about="">
        <dc:format>image/svg+xml</dc:format>
        <dc:type
           rdf:resource="http://purl.org/dc/dcmitype/StillImage" />
        <dc:title></dc:title>
      </cc:Work>
    </rdf:RDF>
  </metadata>
  <g
     inkscape:label="Layer 1"
     inkscape:groupmode="layer"
     id="layer1"
     transform="translate(-44.285416,-38.563881)">
    <text
       xml:space="preserve"
       style="font-style:normal;font-variant:normal;font-weight:normal;font-stretch:normal;font-size:10.58333302px;line-height:1.25;font-family:Tahoma;-inkscape-font-specification:Tahoma;letter-spacing:0px;word-spacing:0px;fill:#000000;fill-opacity:1;stroke:none;stroke-width:0.26458332"
       x="84.288696"
       y="68.702377"
       id="text12"><tspan
         sodipodi:role="line"
         id="tspan10"
         x="84.288696"
         y="78.357872"
         style="font-style:normal;font-variant:normal;font-weight:normal;font-stretch:normal;font-family:Tahoma;-inkscape-font-specification:Tahoma;stroke-width:0.26458332" /></text>
    <text
       xml:space="preserve"
       style="font-style:normal;font-variant:normal;font-weight:normal;font-stretch:normal;font-size:10.58333302px;line-height:1.25;font-family:Tahoma;-inkscape-font-specification:Tahoma;letter-spacing:0px;word-spacing:0px;fill:#000000;fill-opacity:1;stroke:none;stroke-width:0.26458332"
       x="57.679165"
       y="64.695831"
       id="text16"><tspan
         sodipodi:role="line"
         id="tspan14"
         x="57.679165"
         y="74.351326"
         style="stroke-width:0.26458332" /></text>
    <text
       xml:space="preserve"
       style="font-style:normal;font-variant:normal;font-weight:normal;font-stretch:normal;font-size:10.58333302px;line-height:1.25;font-family:Tahoma;-inkscape-font-specification:Tahoma;letter-spacing:0px;word-spacing:0px;fill:#000000;fill-opacity:1;stroke:none;stroke-width:0.26458332"
       x="72.590401"
       y="60.613468"
       id="text20"><tspan
         sodipodi:role="line"
         id="tspan18"
         x="72.590401"
         y="70.268967"
         style="font-style:normal;font-variant:normal;font-weight:normal;font-stretch:normal;font-family:'Arial Unicode MS';-inkscape-font-specification:'Arial Unicode MS';stroke-width:0.26458332" /></text>
    <flowRoot
       xml:space="preserve"
       id="flowRoot22"
       style="font-style:normal;font-variant:normal;font-weight:normal;font-stretch:normal;font-size:40px;line-height:1.25;font-family:Tahoma;-inkscape-font-specification:Tahoma;letter-spacing:0px;word-spacing:0px;fill:#000000;fill-opacity:1;stroke:none"><flowRegion
         id="flowRegion24"><rect
           id="rect26"
           width="56.922096"
           height="60.104076"
           x="259.86176"
           y="192.67427" /></flowRegion><flowPara
         id="flowPara28" /></flowRoot>    <text
       xml:space="preserve"
       style="font-style:normal;font-variant:normal;font-weight:normal;font-stretch:normal;font-size:10.58333302px;line-height:1.25;font-family:Tahoma;-inkscape-font-specification:Tahoma;letter-spacing:0px;word-spacing:0px;fill:#000000;fill-opacity:1;stroke:none;stroke-width:0.26458332"
       x="55.191154"
       y="68.471191"
       id="text32"><tspan
         sodipodi:role="line"
         id="tspan30"
         x="55.191154"
         y="78.126686"
         style="stroke-width:0.26458332" /></text>
    <g
       aria-label="♘"
       style="font-style:normal;font-variant:normal;font-weight:normal;font-stretch:normal;font-size:10.58333302px;line-height:1.25;font-family:'Arial Unicode MS';-inkscape-font-specification:'Arial Unicode MS';letter-spacing:0px;word-spacing:0px;fill:#000000;fill-opacity:1;stroke:none;stroke-width:0.26458332"
       id="text36">
      <path
         d="M 86.964188,81.117348 H 56.28079 q 0,-4.638477 1.16582,-7.118946 1.16582,-2.480468 4.117578,-4.191992 3.745508,-2.158007 3.745508,-5.457031 0,-0.74414 -0.496094,-1.513086 -1.314648,1.066602 -7.019726,2.43086 -1.984375,0.570507 -2.43086,3.819921 -0.248047,1.537891 -1.016992,2.406055 -0.74414,0.843359 -1.785937,0.843359 -2.678907,0 -5.382617,-2.158007 -2.678907,-2.182813 -2.678907,-4.861719 0,-2.083594 2.877344,-5.92832 2.083594,-2.80293 2.654102,-3.919141 0.570507,-1.116211 0.768945,-2.75332 0.198437,-1.785938 0.42168,-2.505274 0.248046,-0.74414 1.091406,-2.009179 1.116211,-1.63711 1.389062,-2.80293 0.297656,-1.16582 0.297656,-3.175 v -3.100586 q 2.331641,1.016992 4.514454,4.7625 l 1.314648,-0.04961 q 0.942578,-1.661914 1.413867,-5.233789 1.736328,0.79375 3.175,3.026172 1.438672,2.207617 2.00918,3.075781 10.666015,1.364258 15.602148,7.88789 4.936133,6.498828 4.936133,22.125781 z M 84.409305,79.70348 v -3.968749 q 0,-15.775781 -4.34082,-22.076172 -4.340821,-6.325195 -14.237891,-7.540625 -0.570508,-0.42168 -1.562695,-2.182812 -1.314648,-2.306836 -2.158008,-2.852539 -0.570508,2.951757 -0.644922,3.54707 -0.07441,0.570508 -0.595312,1.5875 -0.496094,1.016992 -1.091406,1.016992 -0.496094,0 -0.496094,-0.744141 0,-0.421679 0.198437,-1.016992 l -3.249414,1.562696 -0.09922,-0.545704 q 0.545703,-0.818554 1.16582,-1.066601 0,-1.711524 -1.885156,-3.472656 0,2.778125 -0.322461,3.96875 -0.297657,1.16582 -1.562696,3.100585 -0.768945,1.21543 -0.967382,1.810743 -0.198438,0.595312 -0.347266,2.257226 -0.09922,1.21543 -0.644922,2.38125 -0.520898,1.141016 -3.026172,4.737695 -1.612304,2.306836 -2.133203,3.249414 -0.496094,0.917774 -0.496094,1.761133 0,1.736328 1.21543,3.001367 1.21543,1.265039 1.934766,1.265039 0.37207,0 0.992187,-1.215429 1.116211,-2.232422 1.810742,-2.232422 0.84336,0 0.84336,0.917773 0,0.719336 -0.694531,1.661914 -0.694532,0.818555 -1.165821,1.785938 0.694531,0.520898 1.612305,0.520898 1.116211,0 1.488281,-2.033984 0.644922,-4.117578 3.100586,-4.836914 1.835547,-0.446484 3.770312,-1.016992 1.959571,-0.570508 2.926954,-1.116211 0.992187,-0.570508 1.513085,-1.190625 0.545704,-0.620117 1.488282,-2.505274 0.198437,0.148829 0.396875,0.347266 -0.496094,1.513086 -0.496094,2.703711 l 0.09922,3.125391 q 0,4.142382 -4.316016,6.523632 -2.33164,1.265039 -3.423047,3.299024 -1.066601,2.033984 -1.066601,5.481835 z M 58.910087,52.368715 q -0.942579,0.223242 -1.562696,0.719336 0.09922,0.79375 0.09922,0.967383 0,0.347266 -0.868164,0.79375 l -1.066602,-0.148828 -0.198437,0.322461 v 1.066601 q -1.16582,-0.917773 -1.16582,-1.53789 0,-0.868164 1.289843,-1.736328 1.314649,-0.892969 2.158008,-0.892969 h 1.116211 z m -9.649024,11.335742 q -0.198437,0.669727 -0.768945,1.116211 l 0.719336,0.868164 q 0,0.42168 -0.297656,0.694531 -0.297657,0.272852 -0.669727,0.272852 -0.768945,0 -0.768945,-1.190625 0,-0.744141 0.496094,-1.240234 0.520898,-0.520899 1.289843,-0.520899 z"
         style="font-size:50.79999924px;stroke-width:0.26458332"
         id="path38"
         inkscape:connector-curvature="0" />
    </g>
  </g>
</svg>
