<?xml version="1.0" encoding="UTF-8" standalone="no"?>
<!-- Created with Inkscape (http://www.inkscape.org/) -->

<svg
   xmlns:dc="http://purl.org/dc/elements/1.1/"
   xmlns:cc="http://creativecommons.org/ns#"
   xmlns:rdf="http://www.w3.org/1999/02/22-rdf-syntax-ns#"
   xmlns:svg="http://www.w3.org/2000/svg"
   xmlns="http://www.w3.org/2000/svg"
   xmlns:sodipodi="http://sodipodi.sourceforge.net/DTD/sodipodi-0.dtd"
   xmlns:inkscape="http://www.inkscape.org/namespaces/inkscape"
   width="100"
   height="100"
   viewBox="0 0 26.458333 26.458334"
   version="1.1"
   id="svg68"
   inkscape:version="0.92.1 r15371"
   sodipodi:docname="white_king.svg">
  <defs
     id="defs62" />
  <sodipodi:namedview
     id="base"
     pagecolor="#ffffff"
     bordercolor="#666666"
     borderopacity="1.0"
     inkscape:pageopacity="0.0"
     inkscape:pageshadow="2"
     inkscape:zoom="5.6"
     inkscape:cx="37.734236"
     inkscape:cy="62.746412"
     inkscape:document-units="mm"
     inkscape:current-layer="text3784"
     showgrid="false"
     units="px"
     inkscape:window-width="1920"
     inkscape:window-height="1018"
     inkscape:window-x="-8"
     inkscape:window-y="-8"
     inkscape:window-maximized="1" />
  <metadata
     id="metadata65">
    <rdf:RDF>
      <cc:Work
         rdf:about="">
        <dc:format>image/svg+xml</dc:format>
        <dc:type
           rdf:resource="http://purl.org/dc/dcmitype/StillImage" />
        <dc:title></dc:title>
      </cc:Work>
    </rdf:RDF>
  </metadata>
  <g
     inkscape:label="Layer 1"
     inkscape:groupmode="layer"
     id="layer1"
     transform="translate(0,-270.54165)">
    <g
       aria-label="♙"
       style="font-style:normal;font-variant:normal;font-weight:normal;font-stretch:normal;font-size:32.49278641px;line-height:1.25;font-family:'Arial Unicode MS';-inkscape-font-specification:'Arial Unicode MS';letter-spacing:0px;word-spacing:0px;fill:#000000;fill-opacity:1;stroke:none;stroke-width:0.81231964"
       id="text72" />
    <g
       aria-label="♖"
       style="font-style:normal;font-variant:normal;font-weight:normal;font-stretch:normal;font-size:32.16291046px;line-height:1.25;font-family:'Arial Unicode MS';-inkscape-font-specification:'Arial Unicode MS';letter-spacing:0px;word-spacing:0px;fill:#000000;fill-opacity:1;stroke:none;stroke-width:0.8040728"
       id="text3770">
      <g
         aria-label="♕"
         style="font-style:normal;font-variant:normal;font-weight:normal;font-stretch:normal;font-size:28.97223854px;line-height:1.25;font-family:'Arial Unicode MS';-inkscape-font-specification:'Arial Unicode MS';letter-spacing:0px;word-spacing:0px;fill:#000000;fill-opacity:1;stroke:none;stroke-width:0.58239472"
         id="text3777">
        <g
           aria-label="♔"
           style="font-style:normal;font-variant:normal;font-weight:normal;font-stretch:normal;font-size:31.81403351px;line-height:1.25;font-family:'Arial Unicode MS';-inkscape-font-specification:'Arial Unicode MS';letter-spacing:0px;word-spacing:0px;fill:#000000;fill-opacity:1;stroke:none;stroke-width:0.46320814"
           id="text3784">
          <path
             d="m 16.631156,278.55133 q 1.724295,-1.8175 4.644724,-1.8175 2.267993,0 3.712673,1.3204 1.44468,1.32041 1.44468,3.35539 0,3.94568 -4.613656,6.46222 v 6.10494 q 0,1.24274 -2.749553,2.08159 -2.749552,0.85438 -5.840857,0.85438 -3.10684,0 -5.8563923,-0.85438 -2.7340185,-0.83885 -2.7340185,-2.08159 v -6.10494 q -4.61365623,-2.51654 -4.61365623,-6.46222 0,-2.03498 1.44468023,-3.35539 1.4446802,-1.3204 3.7126729,-1.3204 2.9048946,0 4.6447246,1.8175 0.8699153,-1.53789 2.2835263,-2.09712 H 10.16893 v -5.82532 h 6.120473 v 5.82532 h -1.941774 q 1.413612,0.55923 2.283527,2.09712 z m -2.003912,-7.03699 h -2.796155 l 1.398078,1.39807 z m 0.761176,3.57286 v -3.06024 l -1.522351,1.52236 z m -2.796155,-1.53788 -1.522352,-1.52236 v 3.06024 z m 2.034979,2.03498 -1.398077,-1.39808 -1.398078,1.39808 z m 1.304873,3.60393 q -0.372821,-0.90098 -1.149531,-1.52235 -0.77671,-0.6369 -1.553419,-0.6369 -0.77671,0 -1.55342,0.6369 -0.77671,0.62137 -1.149531,1.52235 0.652437,0.6369 1.491283,2.22139 0.854381,1.58449 1.211668,2.96703 0.357286,-1.38254 1.196133,-2.96703 0.838846,-1.58449 1.506817,-2.22139 z m 5.157353,8.07778 q 2.097116,-1.04079 3.262181,-2.57868 1.180599,-1.55342 1.180599,-3.27771 0,-1.7243 -1.180599,-2.74955 -1.165065,-1.02526 -3.075771,-1.02526 -5.172887,0 -7.316606,7.56515 4.567053,0.20195 7.130196,2.06605 z m -8.590411,-2.06605 q -2.143719,-7.56515 -7.3166059,-7.56515 -1.9107062,0 -3.0913051,1.04079 -1.18059885,1.02526 -1.18059885,2.73402 0,1.72429 1.18059885,3.27771 1.1805989,1.53789 3.2777154,2.57868 2.5476082,-1.8641 7.1301956,-2.06605 z m 8.435069,6.95932 v -0.69904 l -1.211667,-1.8641 1.211667,-0.74564 v -0.46603 q -0.792244,-1.04079 -2.935963,-1.66216 -2.128185,-0.6369 -4.768998,-0.6369 -2.640814,0 -4.7845328,0.6369 -2.1281848,0.62137 -2.9204288,1.66216 v 0.46603 l 1.2116673,0.74564 -1.2116673,1.8641 v 0.69904 q 3.168976,-1.73983 7.7049616,-1.73983 4.535985,0 7.704961,1.73983 z m -5.732118,-4.03889 -1.972843,1.39808 -1.972843,-1.39808 1.972843,-1.24273 z m -1.972843,7.89137 q 2.314595,0 5.002011,-0.74564 2.70295,-0.73011 2.70295,-1.60002 0,-0.77671 -2.454403,-1.56895 -2.438869,-0.79225 -5.250558,-0.79225 -2.81169,0 -5.2660928,0.79225 -2.4388688,0.79224 -2.4388688,1.56895 0,0.86991 2.6874159,1.60002 2.7029497,0.74564 5.0175457,0.74564 z"
             style="stroke-width:0.46320814"
             id="path3786" />
        </g>
      </g>
    </g>
  </g>
</svg>
